<?xml version="1.0" standalone="no"?>
<!DOCTYPE svg PUBLIC "-//W3C//DTD SVG 20010904//EN"
 "http://www.w3.org/TR/2001/REC-SVG-20010904/DTD/svg10.dtd">
<svg version="1.0" xmlns="http://www.w3.org/2000/svg"
 width="225.000000pt" height="225.000000pt" viewBox="0 0 225.000000 225.000000"
 preserveAspectRatio="xMidYMid meet">
<metadata>
Created by potrace 1.14, written by Peter Selinger 2001-2017
</metadata>
<g transform="translate(0.000000,225.000000) scale(0.100000,-0.100000)"
fill="#000000" stroke="none">
<path d="M662 1903 c-11 -10 -108 -123 -217 -252 -128 -153 -195 -240 -193
-252 2 -10 198 -251 437 -534 417 -495 435 -515 452 -498 76 77 859 1022 859
1036 0 16 -351 443 -407 495 l-24 22 -443 0 c-408 0 -445 -1 -464 -17z m388
-59 c0 -3 -57 -84 -127 -180 l-128 -174 -12 53 c-13 57 -53 280 -53 297 0 6
56 10 160 10 88 0 160 -3 160 -6z m470 -4 c0 -17 -40 -240 -53 -297 l-12 -52
-125 171 c-69 94 -126 174 -128 179 -2 5 69 9 157 9 105 0 161 -4 161 -10z
m-339 -92 c30 -40 93 -126 141 -190 l87 -118 -280 0 c-154 0 -279 4 -277 8 4
12 269 372 273 372 2 0 27 -33 56 -72z m-481 -130 c16 -92 30 -170 30 -173 0
-3 -83 -5 -186 -5 l-185 0 153 181 c84 100 153 178 155 173 1 -5 16 -84 33
-176z m1049 -8 l139 -165 -180 -3 c-100 -1 -183 -1 -185 1 -2 2 11 84 29 181
26 144 34 174 45 164 7 -7 75 -87 152 -178z m-865 -627 c75 -214 136 -392 136
-396 0 -6 -581 679 -649 766 -13 16 -2 17 181 17 l195 0 137 -387z m543 372
c-4 -8 -72 -200 -152 -426 -80 -227 -147 -414 -149 -416 -2 -3 -54 142 -252
705 l-53 152 305 0 c265 0 305 -2 301 -15z m452 -5 c-28 -39 -644 -767 -647
-765 -2 2 58 179 134 394 l138 391 194 0 c191 0 194 0 181 -20z"/>
</g>
</svg>
